<svg id="visual" viewBox="0 0 960 540" width="960" height="540" xmlns="http://www.w3.org/2000/svg" xmlns:xlink="http://www.w3.org/1999/xlink" version="1.1"><rect x="0" y="0" width="960" height="540" fill="#FFFEC4"></rect><defs><linearGradient id="grad1_0" x1="43.8%" y1="0%" x2="100%" y2="100%"><stop offset="14.444444444444446%" stop-color="#fffec4" stop-opacity="1"></stop><stop offset="85.55555555555554%" stop-color="#fffec4" stop-opacity="1"></stop></linearGradient></defs><defs><linearGradient id="grad2_0" x1="0%" y1="0%" x2="56.3%" y2="100%"><stop offset="14.444444444444446%" stop-color="#fffec4" stop-opacity="1"></stop><stop offset="85.55555555555554%" stop-color="#fffec4" stop-opacity="1"></stop></linearGradient></defs><g transform="translate(960, 0)"><path d="M0 135C-11.9 133.4 -23.7 131.9 -34.2 127.5C-44.6 123.1 -53.5 116 -64 110.9C-74.5 105.7 -86.4 102.6 -95.5 95.5C-104.5 88.3 -110.5 77.1 -114.3 66C-118.1 54.9 -119.6 43.9 -122.7 32.9C-125.7 21.9 -130.4 10.9 -135 0L0 0Z" fill="#FF9B9B"></path></g><g transform="translate(0, 540)"><path d="M0 -135C11.9 -133.7 23.8 -132.4 34.2 -127.5C44.5 -122.6 53.2 -114 61.5 -106.5C69.8 -99 77.6 -92.7 86.3 -86.3C95 -79.9 104.6 -73.4 112.6 -65C120.6 -56.6 126.9 -46.1 130.4 -34.9C133.9 -23.8 134.4 -11.9 135 0L0 0Z" fill="#FF9B9B"></path></g></svg>